<svg width="14" height="13" viewBox="0 0 14 13" fill="none" xmlns="http://www.w3.org/2000/svg">
<path d="M5.05573 6.5L1.16723 2.52313C0.916761 2.2579 0.778169 1.90268 0.781302 1.53397C0.784435 1.16525 0.929042 0.81255 1.18398 0.55182C1.43891 0.291089 1.78378 0.143196 2.1443 0.139992C2.50482 0.136788 2.85215 0.27853 3.11148 0.53469L6.99998 4.51156L10.8885 0.53469C11.0153 0.400378 11.167 0.293246 11.3348 0.219546C11.5026 0.145846 11.683 0.107053 11.8656 0.10543C12.0481 0.103808 12.2292 0.139389 12.3982 0.210097C12.5672 0.280804 12.7207 0.385223 12.8498 0.517259C12.9789 0.649296 13.081 0.806306 13.1501 0.979129C13.2192 1.15195 13.254 1.33713 13.2524 1.52385C13.2509 1.71057 13.2129 1.8951 13.1409 2.06666C13.0688 2.23823 12.9641 2.3934 12.8327 2.52313L8.94423 6.5L12.8327 10.4769C12.9641 10.6066 13.0688 10.7618 13.1409 10.9333C13.2129 11.1049 13.2509 11.2894 13.2524 11.4762C13.254 11.6629 13.2192 11.8481 13.1501 12.0209C13.081 12.1937 12.9789 12.3507 12.8498 12.4827C12.7207 12.6148 12.5672 12.7192 12.3982 12.7899C12.2292 12.8606 12.0481 12.8962 11.8656 12.8946C11.683 12.893 11.5026 12.8542 11.3348 12.7805C11.167 12.7068 11.0153 12.5996 10.8885 12.4653L6.99998 8.48844L3.11148 12.4653C2.85215 12.7215 2.50482 12.8632 2.1443 12.86C1.78378 12.8568 1.43891 12.7089 1.18398 12.4482C0.929042 12.1875 0.784435 11.8347 0.781302 11.466C0.778169 11.0973 0.916761 10.7421 1.16723 10.4769L5.05573 6.5Z" fill="#7A0405"/>
</svg>
